<svg xmlns="http://www.w3.org/2000/svg" viewBox="0 0 174.44 50.87"><defs><style>.cls-1{fill:#fff}</style></defs><title>logo</title><g id="Capa_2" data-name="Capa 2"><g id="diseño"><path class="cls-1" d="M174.44 11.98l-8.46-8.47-3.52-3.06-3.21 3.21L171 15.42l3.44-3.44z"/><path class="cls-1" transform="rotate(-45 158.333 7.756)" d="M149.92 5.32h16.81v4.86h-16.81z"/><path class="cls-1" d="M17.25 20c-.09-2.57-1.24-4.25-4-4.25-2 0-3.72 1.24-4.91 2.12v16.39H3.5v-18.1H0v-4h8.36v3h.09a9.2 9.2 0 0 1 5.84-3.32 11.06 11.06 0 0 1 2.08 0 5.57 5.57 0 0 1 5.09 3.67 10.52 10.52 0 0 1 7.79-3.76c4.42 0 6.64 2.79 6.64 7.34v15.17H31V20.15c0-2.7-1.19-4.42-4-4.42-2 0-3.76 1.28-5 2.21 0 .62.09 1.28.09 2v14.32h-4.84zm43.96-7.86h8.36v3.54h.09a10.41 10.41 0 0 1 8-4v4.6a17.42 17.42 0 0 0-8.05 2.12v15.86h-4.9v-18.1h-3.5zm32.28 6.62v-2.68a14.83 14.83 0 0 0-3.59-.35c-4 0-6 2.83-6 7.48s1.95 7.48 6 7.48a24.08 24.08 0 0 0 6.77-.88l.84 3.89a29.25 29.25 0 0 1-7.61 1c-8.31 0-11.1-4.6-11.1-11.5s2.79-11.5 11.1-11.5a29.19 29.19 0 0 1 7.61 1v6zm47.04 1.39c0-2.7-1.06-4.42-4-4.42a10 10 0 0 0-5.39 2.12v16.41h-4.87v-18.1h-3.5v-4h8.36v3h.09a10.37 10.37 0 0 1 7.52-3.45c4.42 0 6.64 2.79 6.64 7.34v15.21h-4.87zm-98.89-3.59l-.71-3.89a44.89 44.89 0 0 1 8.65-1C55.06 11.7 58 13.2 58 19v15.26h-4.84V32h-.09a8.87 8.87 0 0 1-6.77 2.7c-4.43 0-6.95-2.83-6.95-6.68 0-5.18 4.51-6.81 9.29-6.81h4.51v-1.86c0-2.61-1.42-3.63-4.69-3.63a32.35 32.35 0 0 0-6.82.84zm11.52 7.56h-4.25c-3.36 0-4.69 1.24-4.69 3.49s1.64 3.32 4 3.32a8.32 8.32 0 0 0 4.91-1.64zm49.94-7.56l-.71-3.89a44.86 44.86 0 0 1 8.64-1c5.49 0 8.45 1.5 8.45 7.34v15.25h-4.87V32h-.09a8.87 8.87 0 0 1-6.77 2.65c-4.42 0-6.94-2.83-6.94-6.68 0-5.18 4.51-6.81 9.29-6.81h4.51v-1.81c0-2.61-1.42-3.63-4.69-3.63a32.34 32.34 0 0 0-6.82.84zm11.52 7.56h-4.25c-3.36 0-4.69 1.24-4.69 3.49s1.63 3.32 4 3.32a8.32 8.32 0 0 0 4.91-1.64zM26.27 43.57a7.28 7.28 0 0 1 2.12.31l-.16.57a7.21 7.21 0 0 0-1.91-.28c-1.6 0-2 1.19-2 2.57s.35 2.66 2 2.66a7.21 7.21 0 0 0 1.91-.28l.16.57a7.24 7.24 0 0 1-2.12.31c-2.11 0-2.62-1.47-2.62-3.27s.51-3.16 2.62-3.16zm3.65 3.18c0-1.74.51-3.18 2.62-3.18s2.62 1.44 2.62 3.18S34.65 50 32.54 50s-2.62-1.48-2.62-3.25zm.72 0c0 1.38.27 2.7 1.9 2.7s1.9-1.32 1.9-2.7-.27-2.6-1.9-2.6-1.9 1.22-1.9 2.6zm9.68 2.06l2.11-5.14h.89v6.27h-.68v-5l-2.09 5H40l-2.08-5v5h-.67v-6.28h.89zm5.15-2.06c0-1.74.51-3.18 2.62-3.18S50.7 45 50.7 46.75 50.19 50 48.08 50s-2.61-1.48-2.61-3.25zm.72 0c0 1.38.27 2.7 1.9 2.7s1.9-1.32 1.9-2.7-.27-2.6-1.9-2.6-1.9 1.22-1.9 2.6zm11.94-3.18c2.11 0 2.62 1.44 2.62 3.18s-.53 3-2.17 3.05a1.52 1.52 0 0 0 1.1.43 6.26 6.26 0 0 0 1 0v.62a4.89 4.89 0 0 1-1 0A2.12 2.12 0 0 1 58 50c-2-.07-2.45-1.55-2.45-3.27s.45-3.16 2.58-3.16zm-1.9 3.18c0 1.38.27 2.7 1.9 2.7s1.9-1.32 1.9-2.7-.27-2.6-1.9-2.6-1.9 1.22-1.9 2.6zm10.55.97v-4.06h.68v4.06a2.3 2.3 0 1 1-4.59 0v-4.06h.68v4.06c0 .7.1 1.73 1.64 1.73s1.59-1.03 1.59-1.73zm3.01 2.21v-6.27h.68v6.27zm6.9-5.66h-3.22v2.1h2.8V47h-2.8v2.34h3.26v.61h-3.94v-6.29h3.9zm6.09 5.66l-1.58-2.54h-1.55v2.54H79v-6.27h2.54a1.75 1.75 0 0 1 1.87 1.86 1.66 1.66 0 0 1-1.46 1.76l1.67 2.65zm-3.13-3.15h1.72a1.18 1.18 0 0 0 1.3-1.25 1.16 1.16 0 0 0-1.24-1.25h-1.78zm9.9-2.51h-3.21v2.1h2.8V47h-2.8v2.34h3.26v.61h-3.94v-6.29h3.9zm2.19 5.44l.12-.57a8.36 8.36 0 0 0 2.08.28c1.06 0 1.49-.58 1.49-1.14 0-.85-1-1.07-1.62-1.24-1-.25-2-.79-2-1.86s.93-1.61 2.11-1.61a7.07 7.07 0 0 1 2.08.31l-.16.57a7.24 7.24 0 0 0-1.92-.28c-1.06 0-1.39.49-1.39 1 0 .81 1 1.1 1.71 1.26 1 .22 1.89.68 1.89 1.76s-.94 1.8-2.2 1.8a7.87 7.87 0 0 1-2.19-.28zm11.71-.58l1.84-5.47h.71L103.85 50H103l-2.22-6.32h.76l1.91 5.47zm4.46.8v-6.27h.68v6.27zm5.24-.8l1.85-5.47h.72L113.54 50h-.84l-2.22-6.32h.75l1.91 5.47zm4.45.8v-6.27h.68v6.27zm6.81 0l-1.57-2.54h-1.55v2.54h-.68v-6.27h2.54a1.75 1.75 0 0 1 1.85 1.87 1.67 1.67 0 0 1-1.47 1.76l1.67 2.65zm-3.12-3.15H123a1.18 1.18 0 0 0 1.3-1.25 1.16 1.16 0 0 0-1.23-1.25h-1.79zm53.15-34.73l-8.58-8.58L162.3.36l-3.26 3.26 11.92 11.92 3.48-3.49z"/><path class="cls-1" transform="rotate(-45 158.105 7.76)" d="M149.58 5.3h17.05v4.93h-17.05z"/></g></g></svg>